<?xml version="1.0" encoding="UTF-8"?>
<svg id="Layer_1" xmlns="http://www.w3.org/2000/svg" version="1.1" viewBox="0 0 247.7 133.1">
  <!-- Generator: Adobe Illustrator 29.8.2, SVG Export Plug-In . SVG Version: 2.1.1 Build 3)  -->
  <defs>
    <style>
      .st0 {
        fill: #662d91;
      }

      .st1 {
        fill: #231f20;
      }

      .st2 {
        fill: #d4e5aa;
      }

      .st3 {
        fill: #99ca3c;
      }

      .st4 {
        fill: #662f90;
      }

      .st5 {
        fill: #d3e5aa;
      }
    </style>
  </defs>
  <g>
    <path class="st0" d="M87.4,111.2v-52.7h10.4v52.7h-10.4ZM119.7,111.2l-11.9-23.3-.5-1.7-.9,1.6-4.6,5.9c-.6-2.1-.7-4.3-.5-6.6.2-2.2.7-4.4,1.5-6.4.8-2,1.7-3.8,2.9-5.4l12-16.7h11.4l-16.2,21.1,18.8,31.6h-11.9Z"/>
    <path class="st3" d="M138.8,111.2v-52.7h10.1v52.7h-10.1Z"/>
    <path class="st1" d="M172.1,111.2l-14.9-52.7h10.1l9.8,38.7.6,4,.8-4,9.4-38h11.4l9.3,37.9.7,4.1.6-3.9,9.8-38.8h9.9l-14.8,52.7h-10.2l-10.3-38.8-.7-3-.6,2.9-10.3,38.8h-10.4Z"/>
    <path class="st1" d="M241.8,68.8c-1.7,0-3.1-.6-4.2-1.7-1.1-1.1-1.7-2.6-1.7-4.2s.6-3.2,1.7-4.3c1.1-1.2,2.6-1.8,4.2-1.8s3.1.6,4.2,1.8c1.1,1.2,1.7,2.6,1.7,4.3s-.6,3.1-1.7,4.2c-1.1,1.1-2.6,1.7-4.2,1.7ZM236.7,111.2v-37.4h10.1v37.4h-10.1Z"/>
    <path class="st1" d="M87,132.9v-14.5h1.9v14.5h-1.9ZM95.7,132.9l-3.9-6.9v-.4c-.1,0-.3.4-.3.4l-1.6,2.1c-.1-.3-.2-.6-.2-1s0-.8.2-1.2c.1-.4.3-.8.6-1.2l4.6-6.3h2.2l-4.5,5.9,5.2,8.6h-2.3Z"/>
    <path class="st1" d="M100.2,132.9v-14.5h1.8v14.5h-1.8Z"/>
    <path class="st1" d="M115.6,133.1c-.9,0-1.7-.2-2.3-.6-.6-.4-1.1-1-1.4-1.6-.3-.7-.5-1.4-.5-2.1s.2-1.7.7-2.4,1-1.3,1.7-1.7c-.3-.5-.6-1-.8-1.5-.2-.5-.3-1-.3-1.4,0-.7.2-1.2.5-1.8.3-.5.7-.9,1.3-1.2.6-.3,1.3-.5,2.1-.5s.9,0,1.4.2c.5.1,1,.3,1.4.5l-.5,1.3c-.3-.2-.7-.3-1.2-.4-.5,0-.9-.1-1.2-.1-.6,0-1.1.2-1.5.5-.4.4-.6.8-.6,1.3s.2,1.1.5,1.6.8,1,1.3,1.7l3.3,3.8h.1c0,.1,0,0,0,0,.3-.6.5-1.1.7-1.6.2-.5.3-1.1.4-1.7h1.4c-.2.9-.4,1.7-.7,2.5-.3.8-.6,1.5-1,2.2l2.5,2.9h-2.4l-6-7h-.1c0-.1-.2,0-.2,0-.3.3-.6.7-.9,1.1-.2.4-.3.9-.3,1.4,0,1,.2,1.7.7,2.3s1.1.9,1.9.9.3,0,.4,0c.1,0,.3,0,.5-.1.4-.1.8-.2,1.2-.1.4,0,.7.2,1,.5-.5.4-1,.7-1.5.9-.5.2-1.2.3-1.9.3Z"/>
    <path class="st1" d="M133.5,132.9l-3.9-14.5h1.9l2.9,11.8.2,1,.2-1,3.1-11.6h2l3,11.6.2,1,.2-.9,2.9-11.8h1.9l-3.9,14.5h-2.2l-3-11.3-.2-.8-.2.8-2.9,11.3h-2.3Z"/>
    <path class="st1" d="M151.1,120.8c-.3,0-.6-.1-.9-.3s-.3-.5-.3-.9.1-.6.3-.9.5-.3.9-.3.6.1.9.3.3.5.3.9-.1.6-.3.9-.5.3-.9.3ZM150.1,132.9v-10.3h1.9v10.3h-1.9Z"/>
    <path class="st1" d="M158,133.1c-.5,0-1,0-1.6-.1-.6,0-1.2-.3-2-.7l.5-1.3c.5.2,1,.4,1.5.5.5.1,1,.2,1.4.2.6,0,1-.1,1.3-.4s.4-.6.4-1.1-.1-.7-.3-.9c-.2-.2-.5-.5-.9-.6-.4-.2-.8-.4-1.2-.6-.4-.2-.8-.4-1.2-.7s-.7-.6-.9-.9c-.2-.4-.3-.8-.3-1.4s.1-.8.4-1.2c.2-.4.6-.7,1.1-1s1.1-.4,1.7-.4.8,0,1.2.1c.5,0,1,.2,1.5.4l-.5,1.3c-.4-.1-.8-.2-1.2-.3-.4,0-.7,0-1,0-.5,0-.8.1-1.1.3-.3.2-.5.5-.5.9s.1.6.3.9c.2.2.5.5.9.6s.8.4,1.2.6c.4.2.8.4,1.2.7s.7.6.9,1c.2.4.3.9.3,1.4s-.2,1-.5,1.4c-.3.4-.7.8-1.2,1s-1,.4-1.6.4Z"/>
    <path class="st1" d="M166.3,133.1c-.5,0-1,0-1.6-.1-.6,0-1.2-.3-2-.7l.5-1.3c.5.2,1,.4,1.5.5.5.1,1,.2,1.4.2.6,0,1-.1,1.3-.4s.4-.6.4-1.1-.1-.7-.3-.9c-.2-.2-.5-.5-.9-.6-.4-.2-.8-.4-1.2-.6-.4-.2-.8-.4-1.2-.7s-.7-.6-.9-.9c-.2-.4-.3-.8-.3-1.4s.1-.8.4-1.2c.2-.4.6-.7,1.1-1s1.1-.4,1.7-.4.8,0,1.2.1c.5,0,1,.2,1.5.4l-.5,1.3c-.4-.1-.8-.2-1.2-.3-.4,0-.7,0-1,0-.5,0-.8.1-1.1.3-.3.2-.5.5-.5.9s.1.6.3.9c.2.2.5.5.9.6s.8.4,1.2.6c.4.2.8.4,1.2.7s.7.6.9,1c.2.4.3.9.3,1.4s-.2,1-.5,1.4c-.3.4-.7.8-1.2,1s-1,.4-1.6.4Z"/>
    <path class="st1" d="M176.2,133.1c-.7,0-1.4-.1-2-.4-.6-.3-1.1-.7-1.5-1.1-.4-.5-.7-1.1-1-1.7s-.3-1.4-.3-2.2.2-2,.6-2.8c.4-.8,1-1.4,1.7-1.8s1.6-.6,2.6-.6,1.3.2,1.8.5c.5.3.9.7,1.3,1.2.3.5.5,1.1.6,1.8,0,.7,0,1.3-.2,2.1h-5.8c.1-.4.3-.7.6-1,.3-.3.6-.4,1.1-.4h2.5c0-.5,0-1-.2-1.4-.2-.4-.4-.7-.8-1-.3-.2-.7-.4-1.2-.4s-1,.1-1.5.4-.8.7-1,1.3c-.2.6-.4,1.3-.4,2.1s.1,1.5.4,2.1c.3.6.7,1.1,1.1,1.4.5.3,1,.5,1.6.5s.9,0,1.3-.1c.4,0,.9-.3,1.5-.6l.5,1.3c-.6.3-1.3.5-1.9.7s-1.1.2-1.6.2Z"/>
    <path class="st1" d="M182.8,132.9v-7.8c0-.4,0-.8,0-1.2,0-.4-.1-.9-.2-1.3h1.4c.3.4.5.7.6,1.1s.1.7.1,1.1v8.1h-1.9ZM189.3,132.9v-7.5c0-.5-.1-.8-.3-1.1-.2-.3-.5-.4-.9-.4s-.3,0-.4,0c-.1,0-.3,0-.4.1-.4,0-.7,0-1.1,0-.3,0-.6-.3-.9-.5.7-.4,1.3-.7,1.8-.8s.9-.2,1.2-.2c.5,0,1,0,1.5.3.5.2.8.5,1.1,1,.3.5.4,1.1.4,1.9v7.3h-1.9Z"/>
    <path class="st1" d="M197.3,133.1c-.5,0-1,0-1.6-.1-.6,0-1.2-.3-2-.7l.5-1.3c.5.2,1,.4,1.5.5.5.1,1,.2,1.4.2.6,0,1-.1,1.3-.4s.4-.6.4-1.1-.1-.7-.3-.9c-.2-.2-.5-.5-.9-.6-.4-.2-.8-.4-1.2-.6-.4-.2-.8-.4-1.2-.7s-.7-.6-.9-.9c-.2-.4-.3-.8-.3-1.4s.1-.8.4-1.2c.2-.4.6-.7,1.1-1s1.1-.4,1.7-.4.8,0,1.2.1c.5,0,1,.2,1.5.4l-.5,1.3c-.4-.1-.8-.2-1.2-.3-.4,0-.7,0-1,0-.5,0-.8.1-1.1.3-.3.2-.5.5-.5.9s.1.6.3.9c.2.2.5.5.9.6s.8.4,1.2.6c.4.2.8.4,1.2.7s.7.6.9,1c.2.4.3.9.3,1.4s-.2,1-.5,1.4c-.3.4-.7.8-1.2,1s-1,.4-1.6.4Z"/>
    <path class="st1" d="M206.9,133.1c-.9,0-1.7-.2-2.4-.6-.7-.4-1.3-1-1.7-1.8-.4-.8-.6-1.8-.6-2.9s.2-2.1.7-2.9,1-1.4,1.8-1.8,1.5-.6,2.4-.6.8,0,1.2,0,.8.2,1.2.3l-.5,1.3c-.4,0-.7-.2-1-.2-.3,0-.6,0-.9,0-.5,0-1,.1-1.4.4-.4.3-.8.7-1,1.3s-.4,1.3-.4,2.2.1,1.6.4,2.2.6,1,1,1.3c.4.3.9.4,1.4.4s.6,0,1-.1c.4,0,.8-.2,1.2-.4l.5,1.3c-.5.3-1,.4-1.5.5s-.9.1-1.2.1Z"/>
    <path class="st1" d="M211.4,132.9v-15.1h1.9v15.1h-1.9ZM217.8,132.9v-7.5c0-.5,0-.8-.3-1.1-.2-.3-.5-.4-.9-.4s-.3,0-.4,0c-.1,0-.2,0-.4.1-.4,0-.7,0-1.1,0-.3,0-.6-.3-.9-.5.7-.4,1.3-.7,1.8-.8s.9-.2,1.2-.2,1,0,1.4.3.8.5,1,1c.3.5.4,1.1.4,1.9v7.3h-1.9Z"/>
    <path class="st1" d="M225.6,133.1c-.7,0-1.3-.1-1.8-.4-.5-.2-.9-.6-1.2-1-.3-.4-.4-.9-.4-1.4s.2-1.2.5-1.7c.4-.4.9-.8,1.7-1.1.8-.3,1.9-.5,3.3-.6,0,.2,0,.3-.2.6s-.2.4-.4.6c-.2.2-.5.3-.8.4-.6,0-1,.2-1.3.4-.3.2-.5.4-.6.6-.1.2-.2.5-.2.7,0,.4.1.8.4,1.1.3.3.7.5,1.2.5s.9-.1,1.4-.3c.5-.2.9-.6,1.3-1.1v-3.7c0-.8-.2-1.4-.6-1.9-.4-.5-1-.7-1.9-.7s-.7,0-1.1.1c-.4,0-.8.2-1.2.4l-.5-1.2c.7-.3,1.2-.5,1.7-.5.5,0,1-.1,1.4-.1,1.3,0,2.3.4,3,1.1s1.1,1.8,1.1,3.1v2.8c0,.8,0,1.5,0,2,0,.6.1,1,.2,1.4h-1.4c-.2-.1-.3-.3-.4-.4-.1-.2-.2-.4-.3-.6v-.4s-.2.4-.2.4c-.5.5-1,.8-1.4,1-.4.2-.9.2-1.4.2Z"/>
    <path class="st1" d="M233.6,132.9v-8.9h-1.7v-1l1.7-.4v-.6c0-.9.1-1.6.4-2.3.3-.7.7-1.2,1.3-1.5s1.3-.5,2.1-.5.7,0,1.1.1.8.2,1.3.4l-.4,1.2c-.4-.2-.8-.3-1-.3-.3,0-.5,0-.7,0-.4,0-.7,0-1.1.3-.4.2-.6.5-.9.9-.2.4-.3.9-.3,1.6v11.1h-1.7ZM236.1,124c0-.3.2-.5.4-.7.1-.2.3-.4.5-.5.2-.1.5-.2.8-.2h1.2v1.4h-2.9Z"/>
    <path class="st1" d="M245,133.1c-1.1,0-1.9-.4-2.5-1.1s-.9-1.7-.9-3v-5.1h-1.8v-.9l1.8-.5v-2.6l1.8-.6v9.9c0,.7.1,1.3.4,1.7.3.5.7.7,1.2.7s.5,0,.8,0c.2,0,.5-.1.9-.2l.4,1.3c-.5.2-.9.3-1.2.3-.3,0-.6,0-.9,0ZM245.8,124c-.3,0-.6,0-.8-.2-.2-.1-.4-.3-.5-.5s-.3-.4-.3-.7h2.8v1.4h-1.1Z"/>
  </g>
  <g>
    <path d="M19.7,10.7c-.1-.6.1-.4.3-.6,3.1-2.7,8.1-3.7,12-3.8,0-.4-.4-.3-.7-.4-.7-.2-1.5-.3-2.2-.3,1.9-1.7,5.1-.8,7.5-.7l-2.9-1.5c-.6-.6,3.2-.7,3.5-.7,1.5,0,3.2.7,4.7,1,.1-.6-.2-.4-.5-.6-.6-.4-1.3-.7-1.9-1s-.4,0-.3-.5c2.8-.3,5.3.5,8,1.2l-2.7-2c0-.3.7-.5.9-.5,2.2,0,4.4,1.5,6.5,2.2L49.8,0c2.5-.5,4.5,1.6,6.6,2.6,0-.9-1.5-1.5-1.2-2.4,2.2.7,3.9,1.9,5.6,3.4.5-.4-1.5-2.7-.5-2.4,1.7.5,3.4,2.7,4.8,3.7l-.6-2.2c1.9.8,3.1,2.7,4.5,4.2v-2c1.5,1.1,2.4,2.9,3,4.6,1,.2.2-1.5.6-2,2.1,2.3,4.3,4.8,5.2,7.8l.5-1c.4-.4,1.5,3.8,1.6,4.1.3,1.5.6,3.1.6,4.7l1-2c0,1.3.3,2.4.2,3.8-.4,4.7-2.4,3.8-3.1-.1l-1,1.7c-.4-1.5-.6-3.2-1.6-4.4-.3,1.1.1,2.2.1,3.3s.2.9-.2.9l-2.4-4.6h-.5c0,.1.8,3.9.8,3.9l-3.6-4.6c0,1.2.8,2.3,1.1,3.5s.4.5-.2.4c-1-1.2-3-4.1-4.3-4.6s-.4,0-.4.1c.6.3,2.4,3.5,2.2,3.8-.7-.3-4.6-4.2-5.1-3.7l2.6,3.9c-2.4-1.8-4.9-3.7-8-4.1l3.7,2.7,1.1,1.5c-2.8-1.3-5.5-2.8-8.7-2.9l4.7,2.7,1.1,1.2-4.8-1,2.8,2.2c-1.9-.7-3.8-1.5-5.9-1.2l3,1.5,1.9,1.4c-2.6-.1-5.5-1.1-8.1-.7s-.7.1-.4.5l8.2,2.4-8.9.7c0,.6,0,.4.4.5,2.8.4,5.6.5,8.3,1l-7.5,2.7,2.1.3,5.9-.5c-.9,1-2.3,1.5-3.3,2.4s-.7.3-.5.8c1.6-.8,3.3-1.1,5.1-1l-3.9,2.6-2.4,3.1,8.4-4.2-3.5,4.7-1.3,3.2,6.9-5.9h.4c-1.6,2.4-2.6,5.2-2.4,8.1l2.6-4.5,1.8-2.3-.6,3.2c.4.4,2-1.9,2.4-2.2s0-.5.5-.3c.1.1-1,2.8-1,3.3v4c.6,0,.4,0,.5-.3,1-1.8,1.7-4.6,2.4-6.5.3-.3.5,0,.5.4,0,.9-.3,2.2-.2,3.4s.3,2.2.5,2.9,0,.8.5.8l1.5-7.8c.5,0,.4.5.5.8.4,1.2.7,2.8,1.2,4s-.1.4.5.3l.7-6.6,1.4,3.4.5.5.5-5.4,1.3,1c.6-.1.4-1.2,1.1-1,.7,2,.8,3.8.5,5.9-.9,0-1-1.2-1.7-1.5,0,3.3.9,6.7-.6,9.8-.6-.5-.6-1.5-1-2.1s0-.4-.5-.3v3.8c0,.8-1.1,4.6-1.6,5.2s-.3.3-.4.2l-1-3.2c-.5,3.3-.6,6.8-3.1,9.3.2-1.3.4-2.3,0-3.5s.1-.4-.5-.4c-.3,3.3-1.8,6.7-4.2,9l.4-3.2h-.5c-1,2.6-2.5,5.2-4.7,6.8l.2-2.9c-.7.8-1.1,1.9-1.8,2.8s-2.8,3-3,3.1c-.5.2-.3-.3-.3-.5,0-.7.6-1.5.3-2.2-1.4,1.5-2.5,3.6-4.7,4.1-.2-.2,1.4-2.9-1.4-.4l3.8,4.7c2.6.4,5.2-.1,7.4,1.6s.5,1,1.2,1.2c1.3.3,9.3-.4,9.5.4v2H21c-.5,0-1.3-1.5-.4-2.1s2.5-.1,3.5-.6,2.8-1.9,2.7-2.6l-3.7-5.8.2,2.7c-1.2-.7-2.1-1.6-3-2.6s-1.8-2.9-2.2-2.6l.4,2.9c-1.9-1.2-3-3.3-4-5.4l-.4,2.7c-2-1.7-2.7-4.1-3.3-6.6l-.5.8-.5,2.2c-1.7-2.1-1.9-4.7-2.4-7.2l-1,3.2c-1.7-1.9-1.7-5.1-1.7-7.6-.5-.6-1.2,2.2-1.2,2.4-.5-.3-.8-1.4-.9-1.9-.3-2.2.2-4,.4-6.1l-1.4,2.4c-1.8-1,.4-7.3,0-7.8l-1.7,1.2c-.4-2.5,1.1-4.4,1.7-6.6L0,46.4c-.3-2.2,1.6-3.9,2.5-5.7-.5-.4-1.8,1.2-2.2.9.3-2.4,2-4.2,3.4-6-.7-.3-1.6.5-2.3.9-.2,0-.2-.2-.1-.4.3-.9,1.4-2.6,2-3.4s2-2.2,2.1-2.5c.4-1-2,.8-2.2.2,1.6-3.2,4.6-5.1,7.2-7.3-1.2-.2-2.4.8-3.5,1.1s-.5,0-.3-.3,1.8-2.1,2-2.3c2.2-2.1,5.3-3.7,8.1-4.9-.1-.4-1.5-.3-1.8-.2-.8,0-1.5.5-2.3.5-.1-.5.2-.5.4-.7,1.3-1.3,3.2-2.4,4.8-3.2l5.2-2.2h-3.4ZM48.4,5.6c-.2.2-.3.5-.3.8.2.8,4.2,1.2,5.3,1.7s3.7,2.7,4,1.2c.4-1.8-7.6-5.1-9.1-3.7ZM62.9,9.2c0-1.3-1-3.1-2.4-2.9-.4.4,2,2.7,2.4,2.9ZM46.2,10.9c.9-1.9-2.2-2.7-3.6-3s-5.5-.9-5.5.7,2.4.7,3.2.8c2.1.3,3.9,1,5.9,1.4ZM25.8,11.7c-.4.4-.5,1.4.3,1.4,1.5-.4,3.4-.2,4.8-.5s1.1-.8.4-1.3-3.1-.2-3.9-.1-1.3.3-1.5.5ZM57.1,16.3c-.4-2-2.6-3.5-4.6-3.4l4.6,3.4ZM39.6,14.9c-1.4-.8-3.3-1-4.9-.8s-3.6.6-2.4,2l7.2.2c.4,0,.4-1.1,0-1.4ZM43.6,15.5c.3.2,2.2.6,2.9.9s5.4,3.1,4.2.4-5.3-3-6.5-2.6-1.1.9-.6,1.4ZM24.4,18.7c.5-.6,0-1.4-.6-1.6-1.2-.4-5.7,1.4-6,2.6s.2,1.3,1.2,1.2,5.3-2,5.5-2.2ZM31.9,19.1c-1,0-2.4.4-3.4.7s-5.4,2.3-4.2,4.1c.3.3.6.2.9.2,1.5-.2,4.7-1.9,6.5-2.5s4-.4,3.8-1.5c-.9-1.4-2.2-1.2-3.6-1.1ZM47.1,20.8c-.6-.6-3.7-.9-4.6-.8s-3.6.6-3.7,1.6c0,1.4,2.1.6,2.9.6s5.8.8,5.9-.3-.4-1-.5-1ZM16,23.7c-1.2.2-4.9,2.5-5.4,3.6s0,1.3.8,1.1,5.3-2.9,5.6-3.2c1.1-1,0-1.7-1-1.6ZM35.6,24.9c-1.2,0-5.8.9-5.3,2.7.2.4.5.4.8.4.8,0,4.9-.9,5.6-1.2s.5-.3.7-.5v-.7c-.6-.7-1-.7-1.9-.7ZM15.1,33.9c.2.1.5.2.8.2.8,0,3.9-2.7,5.1-3.4s4.5-1.7,4.8-2.5.2-.4,0-.7c-.9-1.7-5.5.3-6.7,1s-5,3.6-4,5.3ZM41.8,27.9c-1,0-5.5.3-4.2,2.1.2.2.5.2.7.2.7,0,4.7-.5,5.1-.7s.7-.5.8-.7c-.4-1.3-1.4-1.1-2.4-1ZM26.5,33c-.6.6-.6,1.9.2,1.8s5.6-2,5.8-2.4c1.3-2.7-4.9-.6-6.1.6ZM11.1,31.3c-1,0-4.8,2-4.5,3.2s.4.3.7.3,3.9-2,4.1-2.2c.5-.5.2-1-.4-1.3ZM39.4,33c-1.3.1-3.3.7-4.5,1.4s-3.8,2.7-1.8,3.2,5.3-1.6,6.4-2,4-.3,3.8-1.8c-.1-1.2-3.1-.9-3.9-.8ZM15.2,41.2c.8.7,3.3-1.4,4.1-1.9s2.9-1.7,2.5-2.6c-1.6-2.1-8,3.2-6.6,4.6ZM6.9,41.5c.6.6,3.2-2,3.8-2.4s2.9-1.4,2.4-2.2-3.9,1.1-4.6,1.8-2.1,2.4-1.6,2.9ZM23.3,42c.4.4,5.2-1.9,5.4-2.4s-.4-1.4-.9-1.4c-1.1,0-5.4,2.1-4.5,3.9ZM48.6,38.6c-1.2-1.1-6.9,1.2-7.7,2.5s-.3,1.7.8,1.6,5-2,5.8-2.4.9-.5,1.2-.9c0-.2,0-.6-.2-.7ZM30.3,44.4c.5.3,5.6-2.2,5.5-3-1-2.4-7.2,1.8-5.5,3ZM11.2,43.4c-.8-.8-6.2,2.9-5.5,4.6,1.1,0,1.9-1.3,2.9-2.1s2.8-1.1,2.6-2.6ZM47.8,43.7c-.9,0-4.4,2.4-3.2,3.6.6.5,3.4-1.8,3.8-2.3s.1-1.3-.6-1.3ZM16.9,44.5c-1.4.1-4.8,3.9-4.9,5.2l.7.9c.7.3,4.3-4.2,5.3-4.7.7-.9-.1-1.6-1-1.5ZM26.4,44.9c-.9,0-3.5,1.4-4.3,2-.9.9-2.2,3.1,0,2.5s4.9-2.7,5-3c.5-.7-.2-1.5-.8-1.5ZM42.1,45.7c-.9-.9-5.7,1.4-5.5,3.2l.6.4c.3,0,4.4-1.9,4.8-2.2s.4-1,.1-1.4ZM47.7,51c.2.1.9,0,1.2-.1s3.1-2.9,3.4-3.2c.8-.9.4-2.2-.7-1.7s-5,4-3.9,5ZM32.9,46.2c-1,.2-3.9,2.5-2.4,3.5.2.1,3.3-2.1,3.5-2.3s.2-.7,0-1c-.2-.3-.8-.3-1.2-.2ZM56.1,49.3c-1.2-.7-2.5.8-3.2,1.7s-2.5,3.1-1.7,3.7h1.1c.4-.9,4.5-4.3,3.8-5.4ZM26.9,50.3c-.9.2-3,1.9-3.7,2.6s-2.1,2.8-1.3,3.3c1.1.8,2.6-1.5,3.4-2.2s3.4-2.3,3.4-2.9-1.1-.9-1.8-.8ZM42.5,50.3c-.7.1-2.5,1.3-3.1,1.8s-3.4,3.3-.9,3.1,4.9-3.2,5.1-3.7c.5-1-.2-1.4-1.1-1.2ZM63.4,51.1c-.4.4-2.3,4-.7,4.1.9.2,1.8-2.7,1.8-3.3s-.6-1.4-1.1-.8ZM10.3,51.2c-.9-1.3-5.2,2.9-4.7,3.9l.5.4c.3,0,1.6-1.6,2-2s2.7-1.6,2.2-2.3ZM58.4,51.8c-.4.1-3,4.5-3.2,5.1-.3,1,0,1.9,1.1,1.3s3.1-4.8,3.3-5.5,0-.5-.2-.7l-.9-.2ZM11.8,58.3c.1.1.4.2.5.2.6,0,2.8-2.8,3.5-3.5.9-.8,2.7-1.4,2.1-2.8-.7-1.1-3,.9-3.6,1.5-.8.8-3.5,3.5-2.5,4.6ZM34.4,52.5s-.9-.2-1-.2c-1.6.2-5.8,4.9-5.4,6.5.2.6.6.9,1.2.7s2.7-3.3,3.2-3.9,2.8-2.3,2-3.1ZM68.3,53.2c-.5.2-.6,3.4-.4,4s.1.7.6.6c1.3,0,1.3-5.1-.2-4.6ZM46.2,54c-1.7.2-6.3,5.4-5.9,7.1.1.6.7.8,1.3.4s2.4-3.1,3.1-3.9,3.8-2.4,1.9-3.7c-.1,0-.2,0-.4,0ZM18.2,57.9c-1.2.2-3.3,3.3-3.3,4.5s.6,1.2,1.2.4.7-1.4,1.1-2,2.3-1.8,1.7-2.7c-.2-.3-.4-.2-.7-.2ZM61.1,57.9c-.2-.1-1-.1-1.2.1s-1.8,3.5-1.8,3.8c-.1.5,0,.8.2,1.2.4,0,1,.1,1.3-.2s1.6-3.6,1.7-3.9,0-.9-.2-.9ZM50.5,58.1c-1.1.3-3.9,4.5-4,5.7s.5,1.3,1.3.8,3.5-4.8,3.8-5.5c.4-1,0-1.4-1.1-1.1ZM33.2,64.2c.5.1.9,0,1.3-.2s2.8-3.7,3-4.1c.9-1.9-.9-1.9-2.2-.3s-3,3.9-2,4.6ZM66,58.8c-1.5-1.1-2.4,3.9-2.4,4.8s.6,1.1,1.3.8,1.6-5.2,1.1-5.6ZM23,60.3c-1.2.2-3.3,3.6-3.3,4.8s.6,1.1,1.2.5.8-1.9,1.3-2.6,1.6-1.4,1.7-2-.6-.8-.9-.7ZM54.1,62.8c-.5.1-2.7,4.4-2.9,5.2-.3,1,.7,1.6,1.4.9s2.3-4.5,2.4-4.9c.2-.8,0-1.5-.9-1.2ZM30.3,64c-.6-.8-2.3.9-2.7,1.5s-1.5,2.9-1.5,3.3c-.1.8.6,1.4,1.3.5s.9-2,1.5-2.9,2-1.8,1.5-2.5ZM42.3,64.7c-1,.3-3.2,4.2-3.1,5.2s.8,1.1,1.5.5,2.7-4.4,2.8-4.7c.1-.7-.5-1.2-1.2-1ZM57.3,71.5c1.1.8,3-3.8,3-4.6s-.8-1-1.4-.4-2.4,4.5-1.7,5ZM34.3,68.1c-1.2.2-4.2,4.6-2.5,5.6,1-.8,1.2-2,2-3.1.3-.4,1.2-1,1.3-1.4.2-.6,0-1.1-.8-1ZM47.7,69.8c-1-.7-3.2,3.5-3.1,4.5s.7,1,1.2.4,2.1-3.8,2.1-4.1-.2-.6-.2-.9ZM51.5,72.5c-.9.2-2.6,2.5-2.9,3.4-.4,1,.5,1.2,1.2.7s2.7-3.2,2.5-3.8c-.2-.4-.4-.5-.8-.4ZM47.7,85.2c.2-.3-3.2-4.4-3.7-4.6s-.4,0-.4.1l1.2,1.6c-2,.3-3.5-.8-5.3-1.5l1.7,1.9c-2.3.3-4.3-.8-6.3-1.7l1.1,2c-1-.2-2.1-.5-3-.9s-1.5-1.1-2.4-1.3l1.9,3.8c1.9.3,4.6,0,6.3,1,1.1.7,1.1,1.7,2.9,2s2.3,0,2.8-.3,1.9-2.2,3.2-2Z"/>
    <path d="M97.3,45.1c-.5,0-.7,0-1.1-.2-1.6-.8-3.4-2.5-5.2-3.6-3.2-1.8-6.8-3.3-10.4-4.1-1-.2-6.5-1-6.7-1.4-.8-1.4,2.1-1.3,2.1-1.8-1.7-2.7.7-3.6,3.2-3.2,5,.7,12.9,7.2,16.1,11.1.4.4,2.4,2.9,1.9,3.3Z"/>
    <path d="M65.1,27.4c3.2,0,4.5,5.1.8,6.1-4.5,1.2-5.4-6-.8-6.1ZM65,28.8c-.8.6.6,2.4,1.3,1.2s-.9-1.5-1.3-1.2Z"/>
    <path class="st4" d="M31.9,19.1c1.4-.1,2.8-.3,3.6,1.1.2,1.1-3.1,1.3-3.8,1.5-1.8.5-5,2.3-6.5,2.5s-.7.1-.9-.2c-1.2-1.8,3-3.7,4.2-4.1s2.4-.6,3.4-.7Z"/>
    <path class="st3" d="M39.4,33c.9,0,3.8-.4,3.9.8.1,1.4-2.8,1.5-3.8,1.8s-5.7,2.2-6.4,2c-2-.5,1.1-2.8,1.8-3.2,1.1-.6,3.2-1.2,4.5-1.4Z"/>
    <path class="st4" d="M34.4,52.5c.7.8-1.5,2.6-2,3.1s-2.8,3.8-3.2,3.9c-.6.2-1-.1-1.2-.7-.4-1.6,3.8-6.3,5.4-6.5s1,.2,1,.2Z"/>
    <path class="st3" d="M46.2,10.9c-2-.4-3.8-1.2-5.9-1.4s-3.2.4-3.2-.8,4.4-1,5.5-.7,4.5,1.1,3.6,3Z"/>
    <path class="st3" d="M11.8,58.3c-1-1.1,1.6-3.8,2.5-4.6.6-.6,2.9-2.5,3.6-1.5.6,1.4-1.2,2-2.1,2.8-.7.7-2.9,3.4-3.5,3.5s-.4,0-.5-.2Z"/>
    <path class="st3" d="M56.1,49.3c.7,1-3.4,4.4-3.8,5.5h-1.1c-.8-.7,1.2-3.2,1.7-3.8.8-.9,2-2.4,3.2-1.7Z"/>
    <path class="st4" d="M57.3,71.5c-.7-.5,1.1-4.5,1.7-5s1.4-.3,1.4.4c0,.8-1.9,5.4-3,4.6Z"/>
    <g>
      <path class="st0" d="M79.4,25.6s-3.3-3.2-6.3,1.4l.2,1.2s2.4-3.8,6.2-1.3v-1.3Z"/>
      <ellipse class="st0" cx="65.9" cy="28.1" rx="8" ry="8.4" transform="translate(-3.2 9.3) rotate(-7.8)"/>
      <ellipse class="st2" cx="65.9" cy="28.1" rx="5.5" ry="5.7" transform="translate(-3.2 9.3) rotate(-7.8)"/>
      <ellipse class="st0" cx="85.5" cy="23.9" rx="8" ry="8.4" transform="translate(-2.5 11.9) rotate(-7.8)"/>
      <ellipse class="st5" cx="85.5" cy="23.9" rx="5.5" ry="5.7" transform="translate(-2.5 11.9) rotate(-7.8)"/>
    </g>
    <path d="M64.1,29.9s2.2-6.8,4.6,0h-4.6Z"/>
    <path d="M83.6,25.8s2.1-6.4,4.4,0h-4.4Z"/>
  </g>
</svg>